<svg xmlns="http://www.w3.org/2000/svg" viewBox="0 0 1440 320"><path fill="#f3f4f5" fill-opacity="1" d="M0,256L9.2,234.7C18.5,213,37,171,55,170.7C73.8,171,92,213,111,197.3C129.2,181,148,107,166,69.3C184.6,32,203,32,222,53.3C240,75,258,117,277,117.3C295.4,117,314,75,332,85.3C350.8,96,369,160,388,154.7C406.2,149,425,75,443,64C461.5,53,480,107,498,138.7C516.9,171,535,181,554,186.7C572.3,192,591,192,609,160C627.7,128,646,64,665,42.7C683.1,21,702,43,720,90.7C738.5,139,757,213,775,250.7C793.8,288,812,288,831,266.7C849.2,245,868,203,886,170.7C904.6,139,923,117,942,106.7C960,96,978,96,997,112C1015.4,128,1034,160,1052,192C1070.8,224,1089,256,1108,250.7C1126.2,245,1145,203,1163,160C1181.5,117,1200,75,1218,90.7C1236.9,107,1255,181,1274,202.7C1292.3,224,1311,192,1329,170.7C1347.7,149,1366,139,1385,128C1403.1,117,1422,107,1431,101.3L1440,96L1440,0L1430.8,0C1421.5,0,1403,0,1385,0C1366.2,0,1348,0,1329,0C1310.8,0,1292,0,1274,0C1255.4,0,1237,0,1218,0C1200,0,1182,0,1163,0C1144.6,0,1126,0,1108,0C1089.2,0,1071,0,1052,0C1033.8,0,1015,0,997,0C978.5,0,960,0,942,0C923.1,0,905,0,886,0C867.7,0,849,0,831,0C812.3,0,794,0,775,0C756.9,0,738,0,720,0C701.5,0,683,0,665,0C646.2,0,628,0,609,0C590.8,0,572,0,554,0C535.4,0,517,0,498,0C480,0,462,0,443,0C424.6,0,406,0,388,0C369.2,0,351,0,332,0C313.8,0,295,0,277,0C258.5,0,240,0,222,0C203.1,0,185,0,166,0C147.7,0,129,0,111,0C92.3,0,74,0,55,0C36.9,0,18,0,9,0L0,0Z"></path></svg>